<?xml version="1.0" standalone="no"?>
<!DOCTYPE svg PUBLIC "-//W3C//DTD SVG 1.1//EN" "http://www.w3.org/Graphics/SVG/1.1/DTD/svg11.dtd" >
<!--
2013-9-30: Created.
-->
<svg>
<metadata>
Created by iconfont
</metadata>
<defs>

<font id="iconfont" horiz-adv-x="1024" >
  <font-face
    font-family="iconfont"
    font-weight="500"
    font-stretch="normal"
    units-per-em="1024"
    ascent="896"
    descent="-128"
  />
    <missing-glyph />
    
    <glyph glyph-name="jinrongyanshengpin-bak" unicode="&#58967;" d="M658.1248 470.1696c-9.8304 0-18.944 6.4512-21.9136 16.384-16.128 54.5792-67.2256 92.672-124.2112 92.672S405.3504 542.72 388.352 488.3968a22.84544 22.84544 0 0 0-28.672-15.0016 22.89664 22.89664 0 0 0-15.0016 28.6208C367.6672 575.5392 434.944 624.9472 512 624.9472c77.1072 0 146.2272-51.6096 168.0896-125.44 3.584-12.1344-3.328-24.832-15.4112-28.416-2.2016-0.6144-4.352-0.9216-6.5536-0.9216zM512 274.3808c-72.6528 0-138.6496 45.7216-164.1472 113.7664-4.4544 11.8272 1.536 24.9856 13.3632 29.44 11.8272 4.352 24.9856-1.5872 29.44-13.3632 18.8928-50.3296 67.6352-84.0704 121.344-84.0704 53.2992 0 101.9392 33.4336 121.0368 83.2512 4.5056 11.776 17.7664 17.7152 29.5424 13.1584 11.776-4.5056 17.664-17.7664 13.1584-29.5424-25.8048-67.3792-91.5968-112.64-163.7376-112.64zM633.9072 45.7728H390.0928c-12.6464 0-22.8864 10.24-22.8864 22.8864s10.24 22.8864 22.8864 22.8864h243.8656c12.6464 0 22.8864-10.24 22.8864-22.8864s-10.2912-22.8864-22.9376-22.8864zM572.9792 137.216H451.0208c-12.6464 0-22.8864 10.24-22.8864 22.8864s10.24 22.8864 22.8864 22.8864h121.9072c12.6464 0 22.8864-10.24 22.8864-22.8864s-10.24-22.8864-22.8352-22.8864zM689.7664 685.9264H334.2336c-12.6464 0-22.8864 10.24-22.8864 22.8864 0 12.6464 10.24 22.8864 22.8864 22.8864h355.584c12.6464 0 22.8864-10.24 22.8864-22.8864 0-12.6464-10.2912-22.8864-22.9376-22.8864z"  horiz-adv-x="1024" />

    
    <glyph glyph-name="Group-" unicode="&#59014;" d="M809.28 673.38666666a32 32 0 0 0 45.44-45.44l-448-448a32 32 0 0 0-45.44 0l-224 224a32 32 0 0 0 45.44 45.44l201.28-201.6z"  horiz-adv-x="1024" />

    
    <glyph glyph-name="ganggan2" unicode="&#58966;" d="M960.9728 733.5424l-274.7904-75.3152-2.048 2.9184c-16.5888 23.6032-43.6224 37.6832-72.2944 37.6832-45.8752 0-84.5312-35.84-88.0128-81.6128l-0.256-3.584-274.8928-75.264a26.112 26.112 0 0 1-15.9232-12.3904c-3.4816-6.144-4.4032-13.2608-2.56-20.0192 3.84-14.0288 18.432-22.3232 32.4608-18.4832l274.7904 75.3152 2.048-2.9184c10.24-14.592 24.5248-25.6 41.216-31.8976l3.328-1.2288V-31.744000000000028H445.4912c-15.2576 0-27.648-12.3904-27.648-27.648s12.3904-27.648 27.648-27.648h332.6464c15.2576 0 27.648 12.3904 27.648 27.648s-12.3904 27.648-27.648 27.648h-138.5472V526.6944l3.2768 1.28c31.9488 12.2368 54.3232 41.984 56.9856 75.7248l0.256 3.584 274.8416 75.3152c14.0288 3.84 22.3232 18.432 18.4832 32.4608-3.84 14.0288-18.432 22.3232-32.4608 18.4832z"  horiz-adv-x="1231" />

    
    <glyph glyph-name="jinrongyanshengpin-qianhover2" unicode="&#58965;" d="M743.3216-96.10239999999999H280.6784c-53.1456 0-96.3584 43.2128-96.3584 96.3584V767.744c0 53.1456 43.2128 96.3584 96.3584 96.3584h462.6432c53.1456 0 96.3584-43.2128 96.3584-96.3584v-767.488c0-53.1456-43.2128-96.3584-96.3584-96.3584zM658.1248 470.1696c-9.8304 0-18.944 6.4512-21.9136 16.384-16.128 54.5792-67.2256 92.672-124.2112 92.672S405.3504 542.72 388.352 488.3968a22.84544 22.84544 0 0 0-28.672-15.0016 22.89664 22.89664 0 0 0-15.0016 28.6208C367.6672 575.5391999999999 434.944 624.9472000000001 512 624.9472000000001c77.1072 0 146.2272-51.6096 168.0896-125.44 3.584-12.1344-3.328-24.832-15.4112-28.416-2.2016-0.6144-4.352-0.9216-6.5536-0.9216zM512 274.3808c-72.6528 0-138.6496 45.7216-164.1472 113.7664-4.4544 11.8272 1.536 24.9856 13.3632 29.44 11.8272 4.352 24.9856-1.5872 29.44-13.3632 18.8928-50.3296 67.6352-84.0704 121.344-84.0704 53.2992 0 101.9392 33.4336 121.0368 83.2512 4.5056 11.776 17.7664 17.7152 29.5424 13.1584 11.776-4.5056 17.664-17.7664 13.1584-29.5424-25.8048-67.3792-91.5968-112.64-163.7376-112.64zM633.9072 45.77279999999996H390.0928c-12.6464 0-22.8864 10.24-22.8864 22.8864s10.24 22.8864 22.8864 22.8864h243.8656c12.6464 0 22.8864-10.24 22.8864-22.8864s-10.2912-22.8864-22.9376-22.8864zM572.9792 137.216H451.0208c-12.6464 0-22.8864 10.24-22.8864 22.8864s10.24 22.8864 22.8864 22.8864h121.9072c12.6464 0 22.8864-10.24 22.8864-22.8864s-10.24-22.8864-22.8352-22.8864zM689.7664 685.9264000000001H334.2336c-12.6464 0-22.8864 10.24-22.8864 22.8864 0 12.6464 10.24 22.8864 22.8864 22.8864h355.584c12.6464 0 22.8864-10.24 22.8864-22.8864 0-12.6464-10.2912-22.8864-22.9376-22.8864z"  horiz-adv-x="1024" />

    
    <glyph glyph-name="jinrongyanshengpin-qianhover" unicode="&#58964;" d="M743.3216 864.1024H280.6784C227.5328 864.1024 184.32 820.8896 184.32 767.744v-767.488c0-53.1456 43.2128-96.3584 96.3584-96.3584h462.6432c53.1456 0 96.3584 43.2128 96.3584 96.3584V767.744c0 53.1456-43.2128 96.3584-96.3584 96.3584z m-109.4144-777.3184H390.0928c-12.6464 0-22.8864 10.24-22.8864 22.8864 0 12.6464 10.24 22.8864 22.8864 22.8864h243.8656c12.6464 0 22.8864-10.24 22.8864-22.8864 0-12.6464-10.2912-22.8864-22.9376-22.8864z m-205.7728 114.3296c0 12.6464 10.24 22.8864 22.8864 22.8864h121.9072c12.6464 0 22.8864-10.24 22.8864-22.8864 0-12.6464-10.24-22.8864-22.8352-22.8864H451.0208c-12.6464 0-22.8864 10.24-22.8864 22.8864z m247.6032 226.9184c-25.8048-67.3792-91.5968-112.64-163.7376-112.64-72.6528 0-138.6496 45.7216-164.1472 113.7664-4.4544 11.8272 1.536 24.9856 13.3632 29.44 11.8272 4.352 24.9856-1.5872 29.44-13.3632 18.8928-50.3296 67.6352-84.0704 121.344-84.0704 53.2992 0 101.9392 33.4336 121.0368 83.2512 4.5056 11.776 17.7664 17.7152 29.5424 13.1584 11.776-4.5056 17.664-17.7664 13.1584-29.5424z m-11.0592 84.0704a22.94784 22.94784 0 0 0-28.4672 15.4624c-16.128 54.5792-67.2256 92.672-124.2112 92.672S405.3504 583.7312 388.352 529.408a22.81472 22.81472 0 0 0-28.6208-15.0016h-0.0512a22.89664 22.89664 0 0 0-15.0016 28.6208C367.6672 616.5504000000001 434.944 665.9584 512 665.9584c77.1072 0 146.2272-51.6096 168.0896-125.44 3.584-12.1344-3.328-24.832-15.4112-28.416z m35.328 214.8352H323.9936c-12.6464 0-22.8864 10.24-22.8864 22.8864 0 12.6464 10.24 22.8864 22.8864 22.8864h376.064c12.6464 0 22.8864-10.24 22.8864-22.8864 0-12.6464-10.2912-22.8864-22.9376-22.8864z"  horiz-adv-x="1024" />

    
    <glyph glyph-name="market" unicode="&#58963;" d="M815.3088 297.6256c-14.5408-9.1648-31.6416-10.3424-44.6464-2.9696-16.5376 9.3184-25.6 31.1808-25.6 61.5424V447.0272c0 43.8784-17.3568 75.1104-46.3872 83.5584-49.152 14.336-86.1696-45.824-100.0448-68.4544L511.8976 321.536V493.4144c-0.9728 39.5264-13.824 63.1808-38.1952 70.3488-16.128 4.7104-40.2944 2.816-63.744-33.0752l-194.304-311.9616A342.2208 342.2208 0 0 0 176.1792 378.88c0 187.9552 150.5792 340.7872 335.7184 340.7872S847.616 566.784 847.616 378.88c0-0.3072 0.1024-0.6144 0.1024-0.9216s-0.0512-0.6144-0.0512-0.9216c1.7408-36.4032-10.0352-65.3312-32.3584-79.4112zM922.2144 378.88v1.8944c-1.024 228.864-184.6784 414.6688-410.2656 414.6688-226.2016 0-410.2656-186.8288-410.2656-416.5632 0-229.6832 184.064-416.5632 410.3168-416.5632 103.8336 0 202.9056 39.4752 278.9376 111.104 15.104 14.2336 16.0256 38.1952 1.9968 53.504a36.97152 36.97152 0 0 1-52.1728 2.56c-0.2048-0.1536-0.3584-0.3584-0.5632-0.512A331.88864 331.88864 0 0 0 512 38.0928c-99.1232 0-188.3136 43.8784-249.8048 113.4592l175.2064 281.344v-129.6896c0-62.3104 24.1664-82.432 44.4416-88.32 20.2752-5.888 51.2512-1.8944 83.8144 50.944l96.3584 156.2112c3.072 5.0176 5.9392 9.3696 8.5504 13.1584v-79.0016c0-58.2144 23.3472-104.8064 64-127.744 36.6592-20.6848 82.7392-18.7904 120.2688 4.864 45.4144 28.7232 69.9392 81.7152 67.3792 145.5616z"  horiz-adv-x="1024" />

    
    <glyph glyph-name="weibo" unicode="&#59033;" d="M761.856 390.144c-16.384 1.536-31.232 10.752-20.48 29.184 10.752 18.432 30.72 72.704-7.68 110.592-38.4 38.4-122.368 23.552-181.76-1.024-59.392-24.576-56.32-7.68-54.272 9.216 2.048 17.92 33.792 117.76-64 129.536-128 15.872-292.864-142.848-350.72-234.496-88.064-138.24-73.728-231.424-73.728-231.424h0.512c10.752-129.024 200.704-231.936 433.152-231.936 200.192 0 368.64 76.288 418.816 179.2 0 0 0 0.512 0.512 1.024 5.12 11.264 9.216 22.528 11.776 34.304 7.168 27.648 12.288 68.096-0.512 107.52-23.552 71.168-95.232 96.768-111.616 98.304z m-347.648-363.52c-165.888 0-300.032 89.088-300.032 198.656s134.144 198.656 300.032 198.656c165.888 0 300.032-89.088 300.032-198.656 0.512-109.568-134.144-198.656-300.032-198.656z m408.064 440.832c3.072-1.536 6.144-2.048 9.216-2.048 9.216 0 18.432 5.632 22.528 14.848 6.144 14.848 9.216 30.72 9.216 46.592 0 66.048-53.76 119.808-119.808 119.808-16.384 0-31.744-3.072-46.592-9.216-12.288-5.12-17.92-19.456-12.8-32.256 5.12-12.288 19.456-17.92 32.256-12.8 8.704 3.584 17.92 5.632 27.648 5.632 39.424 0 71.168-32.256 71.168-71.168 0-9.728-2.048-18.944-5.632-27.648-5.12-12.288 0.512-26.624 12.8-31.744zM742.4 796.672c-27.136 0-54.272-4.096-80.384-11.776-19.456-5.632-30.208-26.112-24.576-45.568 5.632-19.456 26.112-30.208 45.568-24.576 19.456 5.632 39.424 8.704 59.392 8.704 114.688 0 208.384-93.696 208.384-208.384 0-20.48-3.072-40.96-8.704-60.416-5.632-19.456 5.12-39.936 24.576-45.568 3.584-1.024 7.168-1.536 10.752-1.536 15.872 0 30.208 10.24 34.816 26.112 7.68 26.624 12.288 53.76 12.288 81.92C1024 670.72 897.536 796.672 742.4 796.672z m-355.84-444.928c-88.576 0-160.256-62.464-160.256-140.288s71.68-140.288 160.256-140.288 160.256 62.464 160.256 140.288-71.68 140.288-160.256 140.288z m-52.224-230.912c-30.72 0-56.32 25.088-56.32 56.32s25.088 56.32 56.32 56.32c30.72 0 56.32-25.088 56.32-56.32s-25.6-56.32-56.32-56.32z m104.96 100.864c-6.656-11.776-20.48-16.384-30.208-10.752-9.728 5.632-12.288 19.968-5.632 31.744 6.656 11.776 20.48 16.384 30.208 10.752 9.728-6.144 12.288-19.968 5.632-31.744z"  horiz-adv-x="1024" />

    
    <glyph glyph-name="ins" unicode="&#58980;" d="M533.81632 814.4128c-116.7872 0-131.34336-0.52736-177.19808-2.62144a313.07776 313.07776 0 0 1-104.2432-20.06528 218.12224 218.12224 0 0 1-125.88032-125.88032 311.29088 311.29088 0 0 1-20.06016-104.21248c-2.05824-45.89056-2.62144-60.45184-2.62144-177.19808 0-116.78208 0.5632-131.6096 2.62144-177.46432a313.94816 313.94816 0 0 1 20.06016-104.2432 220.13952 220.13952 0 0 1 125.88032-125.88032 313.22112 313.22112 0 0 1 104.2432-19.80416c45.85472-2.09408 60.45184-2.62144 177.19808-2.62144 116.75136 0 131.6096 0.52736 177.4592 2.62144a314.44992 314.44992 0 0 1 104.24832 19.84 222.1056 222.1056 0 0 1 125.84448 125.84448 314.7008 314.7008 0 0 1 19.83488 104.2432c2.05312 45.85472 2.62144 60.70784 2.62144 177.42336 0 116.7872-0.5632 131.38432-2.62144 177.23392a311.82336 311.82336 0 0 1-19.83488 104.21248 220.1344 220.1344 0 0 1-125.84448 125.88032 313.856 313.856 0 0 1-104.28416 20.06528c-45.85472 2.09408-60.71296 2.62144-177.46432 2.62144h0.04096z m0-77.66528c114.91328 0 128.46592-0.26112 173.79328-2.32448a237.94688 237.94688 0 0 0 79.72352-14.85824 142.22848 142.22848 0 0 0 81.86368-81.60256 241.8944 241.8944 0 0 0 14.60224-79.95392c2.05312-45.3632 2.62144-58.91584 2.62144-173.568 0-114.69312-0.5632-128.4608-2.62144-173.83424a239.9232 239.9232 0 0 0-14.60224-79.72352 133.92896 133.92896 0 0 0-32.30208-49.52576 131.56352 131.56352 0 0 0-49.52576-32.3072 240.2304 240.2304 0 0 0-79.72864-14.59712c-45.3632-2.09408-58.91584-2.62144-173.82912-2.62144-114.91328 0-128.2048 0.52736-173.568 2.62144a242.048 242.048 0 0 0-79.98976 14.59712 130.73408 130.73408 0 0 0-49.25952 32.3072 133.81632 133.81632 0 0 0-32.3072 49.52576 245.11488 245.11488 0 0 0-14.85824 79.72352c-2.09408 45.36832-2.3552 58.91584-2.3552 173.83424 0 114.91328 0.26112 128.2048 2.3552 173.568a246.30784 246.30784 0 0 0 14.85824 79.98976 142.7968 142.7968 0 0 0 81.5616 81.5616 239.80032 239.80032 0 0 0 79.98976 14.85824c45.37344 2.06336 58.92608 2.3296 173.57824 2.3296z m0-131.57376c-121.96864-0.08192-220.77952-99.02592-220.6976-220.99456 0.08704-121.96864 99.02592-220.77952 220.99456-220.6976 121.95328 0.08704 220.75392 99.01056 220.69248 220.96384 0.04096 121.86624-98.71872 220.69248-220.58496 220.73344H533.77024h0.04608z m0-364.0576c-79.1552 0-143.32416 64.16896-143.32416 143.32928 0 79.1552 64.16896 143.32416 143.32416 143.32416s143.32416-64.16896 143.32416-143.32416c0-79.16032-64.16896-143.32928-143.32416-143.32928z m281.18016 372.62848c0-28.49792-23.10144-51.59936-51.59424-51.59936s-51.59424 23.10144-51.59424 51.59936 23.10144 51.59936 51.59424 51.59936 51.59424-23.10144 51.59424-51.59936z"  horiz-adv-x="1068" />

    
    <glyph glyph-name="jinrongyanshengpin-hou" unicode="&#58961;" d="M961.3824-95.12959999999998H390.2976c-14.7968 0-26.7776 11.9808-26.7776 26.7776s11.9808 26.7776 26.7776 26.7776h532.8896l-123.2896 339.0976H461.6704c-14.7968 0-26.7776 11.9808-26.7776 26.7776 0 14.7968 11.9808 26.7776 26.7776 26.7776h356.9152c11.264 0 21.2992-7.0656 25.1904-17.6128l142.7968-392.6016c2.9696-8.192 1.792-17.3056-3.2256-24.5248a26.7008 26.7008 0 0 0-21.9648-11.4688zM747.2128 190.41279999999995H461.6704c-14.7968 0-26.7776 11.9808-26.7776 26.7776s11.9808 26.7776 26.7776 26.7776h285.5424c14.7968 0 26.7776-11.9808 26.7776-26.7776s-11.9808-26.7776-26.7776-26.7776z"  horiz-adv-x="1024" />

    
    <glyph glyph-name="jinrongyanshengpin-qian" unicode="&#58962;" d="M743.3216-96.10239999999999H280.6784c-53.1456 0-96.3584 43.2128-96.3584 96.3584V767.744c0 53.1456 43.2128 96.3584 96.3584 96.3584h462.6432c53.1456 0 96.3584-43.2128 96.3584-96.3584v-767.488c0-53.1456-43.2128-96.3584-96.3584-96.3584zM280.6784 818.3808c-27.904 0-50.6368-22.7328-50.6368-50.6368v-767.488c0-27.904 22.7328-50.6368 50.6368-50.6368h462.6432c27.904 0 50.6368 22.7328 50.6368 50.6368V767.744c0 27.904-22.7328 50.6368-50.6368 50.6368H280.6784zM658.1248 470.1696c-9.8304 0-18.944 6.4512-21.9136 16.384-16.128 54.5792-67.2256 92.672-124.2112 92.672S405.3504 542.72 388.352 488.3968a22.84544 22.84544 0 0 0-28.672-15.0016 22.89664 22.89664 0 0 0-15.0016 28.6208C367.6672 575.5391999999999 434.944 624.9472000000001 512 624.9472000000001c77.1072 0 146.2272-51.6096 168.0896-125.44 3.584-12.1344-3.328-24.832-15.4112-28.416-2.2016-0.6144-4.352-0.9216-6.5536-0.9216zM512 274.3808c-72.6528 0-138.6496 45.7216-164.1472 113.7664-4.4544 11.8272 1.536 24.9856 13.3632 29.44 11.8272 4.352 24.9856-1.5872 29.44-13.3632 18.8928-50.3296 67.6352-84.0704 121.344-84.0704 53.2992 0 101.9392 33.4336 121.0368 83.2512 4.5056 11.776 17.7664 17.7152 29.5424 13.1584 11.776-4.5056 17.664-17.7664 13.1584-29.5424-25.8048-67.3792-91.5968-112.64-163.7376-112.64zM633.9072 45.77279999999996H390.0928c-12.6464 0-22.8864 10.24-22.8864 22.8864s10.24 22.8864 22.8864 22.8864h243.8656c12.6464 0 22.8864-10.24 22.8864-22.8864s-10.2912-22.8864-22.9376-22.8864zM572.9792 137.216H451.0208c-12.6464 0-22.8864 10.24-22.8864 22.8864s10.24 22.8864 22.8864 22.8864h121.9072c12.6464 0 22.8864-10.24 22.8864-22.8864s-10.24-22.8864-22.8352-22.8864zM689.7664 685.9264000000001H334.2336c-12.6464 0-22.8864 10.24-22.8864 22.8864 0 12.6464 10.24 22.8864 22.8864 22.8864h355.584c12.6464 0 22.8864-10.24 22.8864-22.8864 0-12.6464-10.2912-22.8864-22.9376-22.8864z"  horiz-adv-x="1024" />

    
    <glyph glyph-name="liudongxingxitong" unicode="&#58959;" d="M1003.4176 474.3168c-0.1536 1.2288-0.5632 2.304-0.768 3.4816-0.1536 1.536-0.4608 3.072-1.024 4.5056-2.7648 8.7552-8.192 16.0768-16.0768 21.4528-30.6176 20.8384-92.0576 8.9088-149.4016-6.4-24.2176 11.3664-78.4896 0.5632-161.7408-32.3584-5.2224 0.1024-10.2912 0-14.8992-0.256-98.9696-6.0416-150.6304-5.5808-159.6928-5.4272-7.6288 1.6896-13.824 3.6352-18.3296 5.7856-9.9328 4.7104-24.7296 13.8752-41.8304 24.4224C391.7312 519.0144 326.2464 559.5136 272.0256 563.2c-1.536 0.0512-3.072 0.0512-4.608 0.0512-94.1056 0-232.1408-69.4272-238.08-72.448-7.9872-4.0448-11.1616-13.824-7.168-21.8624 3.9936-8.0384 13.7216-11.3152 21.6576-7.2192 1.3824 0.7168 137.216 69.0176 222.8224 69.0176 1.28 0 2.56 0 3.84-0.0512 45.568-3.1232 107.2128-41.1648 152.1664-68.9664 17.92-11.0592 33.4336-20.6336 44.9024-26.112 7.0144-3.328 15.616-6.0928 26.7264-8.4992 0.256-0.0512 0.512-0.0512 0.768-0.1024 0.7168-0.1024 1.4336-0.256 2.2016-0.256 2.0992-0.0512 53.4016-1.3312 164.096 5.4272 24.4224 1.4848 39.0144-2.4064 47.5648-12.6976 4.7616-5.6832 4.7616-9.3696 4.3008-11.9296-4.0448-20.8896-57.3952-49.3568-77.4656-60.1088-41.6768-22.2208-158.1568-25.2416-246.1696 20.48-6.2976 3.2768-14.2848 2.8672-19.3024-2.1504-8.3456-8.3456-5.7856-21.4016 3.6864-26.3168 53.6064-28.0576 118.1184-40.5504 173.9776-40.5504 41.984 0 79.104 7.0656 102.9632 19.8144 53.76 28.7232 88.2688 52.5312 94.0544 82.6368 1.8432 9.472 1.3824 23.9616-11.264 39.1168-2.6624 3.1744-5.5296 5.9392-8.4992 8.3968 21.6064 7.2192 43.5712 13.8752 65.9968 18.176 7.1168 1.3824 14.4384 2.7136 21.76 2.7648 2.0992 0 4.864 0.256 6.912-0.5632 3.84-1.536 5.632-5.12 10.2912-5.632 3.072-0.3584 6.144 0.256 9.1136 0.9216 29.8496 6.6048 59.0336 15.36 89.7536 17.408 11.9808 0.8192 27.4432 1.8432 38.144-5.0176 0.1024-0.0512 0.2048-0.1536 0.3584-0.2048 0.768-0.512 1.1776-1.0752 1.6896-1.6384-4.9152-10.7008-21.6576-32.4608-77.824-67.584-32.512-20.3776-116.5824-65.2288-156.9792-86.784l-14.2848-7.6288c-7.3728-3.9424-15.1552-8.448-23.5008-13.2608-44.2368-25.4976-104.8064-60.416-190.9248-60.416h-0.6144c-7.936 0.4608-54.528 13.1072-95.6416 24.2688-100.4032 27.2384-178.9952 47.9744-204.6976 46.592-41.7792-2.304-146.2784-24.6784-150.6816-25.6-8.704-1.8432-14.2848-10.496-12.4416-19.3024a16.13824 16.13824 0 0 1 19.1488-12.544c1.0752 0.2048 106.4448 22.784 145.7664 24.9344 21.9648 1.536 125.952-26.88 194.56-45.5168 67.7376-18.3808 94.208-25.344 103.68-25.3952h0.7168c94.8736 0 159.7952 37.376 207.1552 64.6656 8.0384 4.608 15.5648 8.96 22.6304 12.7488l14.2848 7.6288c43.8272 23.3984 125.4912 66.9184 158.9248 87.9104 49.0496 30.6688 77.8752 56.4736 89.344 80.0256 3.9424 3.4304 6.2464 8.8064 5.5808 14.4896z"  horiz-adv-x="1024" />

    
    <glyph glyph-name="qianbaoxitong-qianhover" unicode="&#58958;" d="M308.8896 95.232C152.6784 95.2832 25.6 222.3616 25.6 378.5728v5.7856C25.6 540.5696 152.6784 667.648 308.8896 667.648h406.272c156.2112 0 283.2896-127.0784 283.2896-283.2896v-4.9664c0-155.904-126.8224-283.0336-282.7776-283.2896l-406.272-0.8192c-0.0512-0.0512-0.512-0.0512-0.512-0.0512zM320.4096 381.44m-82.0736 0a82.0736 82.0736 0 1 1 164.1472 0 82.0736 82.0736 0 1 1-164.1472 0Z"  horiz-adv-x="1024" />

    
    <glyph glyph-name="qianbaoxitong-qian" unicode="&#58956;" d="M333.3632 475.5456l-5.8368 0.1024c-43.5712-1.5872-81.3056-36.352-81.92-82.6368-0.5632-46.2336 35.072-84.224 79.7184-84.8384l5.8368-0.1024h1.1264c44.1344 0 80.1792 36.7616 80.7936 82.5856 0.5632 46.2848-35.1232 84.2752-79.7184 84.8896z m386.048 200.6528H304.5888C145.1008 676.1984 15.36 546.4576 15.36 386.9696v-5.9392c0-159.488 129.7408-289.2288 289.2288-289.28h0.512l414.8224 0.8192c159.1808 0.256 288.7168 130.048 288.7168 289.2288v5.12c0 159.5392-129.7408 289.28-289.2288 289.28z m214.8864-294.3488c0-118.272-96.2048-214.6816-214.4768-214.8864l-414.8224-0.8192h-0.3584c-118.4768 0-214.8864 96.4096-214.8864 214.8864v5.9392c0 118.4768 96.4096 214.8864 214.8864 214.8864h414.8224c118.4768 0 214.8864-96.4096 214.8864-214.8864v-5.12z"  horiz-adv-x="1024" />

    
    <glyph glyph-name="qianbaoxitong-hou" unicode="&#58957;" d="M979.3024 383.232c9.1136 0 16.5376 7.424 16.5376 16.5376V547.3792c0 34.048-27.6992 61.7472-61.7472 61.7472h-44.2368c-7.6288 51.968-52.3776 92.0064-106.3936 92.0064h-185.1904l-80.2816 80.2816c-10.24 10.24-26.88 10.24-37.1712 0L400.5888 701.1328H240.5376c-53.8112 0-98.4064-39.7312-106.2912-92.0064h-44.3392c-34.048 0-61.7472-27.6992-61.7472-61.7472v-506.7264c0-34.048 27.6992-61.7472 61.7472-61.7472h844.1856c34.048 0 61.7472 27.6992 61.7472 61.7472v132.9664c0 9.1136-7.424 16.5376-16.5376 16.5376s-16.5376-7.424-16.5376-16.5376v-132.9664c0-15.8208-12.8512-28.672-28.672-28.672H89.9072c-15.8208 0-28.672 12.8512-28.672 28.672V547.3792c0 15.8208 12.8512 28.672 28.672 28.672h844.1856c15.8208 0 28.672-12.8512 28.672-28.672v-147.6096c0-9.1136 7.424-16.5376 16.5376-16.5376zM167.5776 609.1264c7.2192 33.6384 37.1712 58.9312 72.96 58.9312h126.976L308.5824 609.1264H167.5776z m292.096 0l55.7568 54.4768c6.5024 6.4 6.656 16.8448 0.256 23.3984a16.5632 16.5632 0 0 1-23.3984 0.256L412.3648 609.1264H355.328l63.744 63.7952 0.0512 0.0512 80.2816 80.2816 80.3328-80.3328 63.7952-63.7952H459.6736z m230.6048 0l-58.9312 58.9312h152.1152c35.584 0 65.3824-25.0368 72.8064-58.9312h-165.9904zM149.4016 286.3616c-9.1136 0-16.5376-7.424-16.5376-16.5376v-180.736c0-9.1136 7.424-16.5376 16.5376-16.5376h254.976c9.1136 0 16.5376 7.3728 16.5376 16.5376 0 9.1136-7.424 16.5376-16.5376 16.5376H165.9392V269.824c0 9.1136-7.424 16.5376-16.5376 16.5376z"  horiz-adv-x="1024" />

    
    <glyph glyph-name="jiaoyixitongfuwuqi" unicode="&#58954;" d="M862.0032 737.1776H721.92c0 0.4608 0.0512 0.9216 0.0512 1.4336V827.4432c0 24.0128-19.6608 43.52-43.776 43.52H166.656c-24.1152 0-43.776-19.5072-43.776-43.52v-88.8832c0-24.0128 19.6608-43.52 43.776-43.52H306.688c0-0.4608-0.0512-0.8704-0.0512-1.3312v-88.8832c0-0.4608 0.0512-0.9216 0.0512-1.4336h-20.8384c-24.1664 0-43.8272-19.5072-43.8272-43.4688 0 0-0.1536-15.2576-0.2048-33.792 0-5.8368 2.7648-11.3664 7.5776-14.6944 22.8864-15.7184 65.9968-56.832 80.64-70.9632 1.4336-1.3824 3.072-2.4576 4.8128-3.2768l0.2048-1.6384c28.8768-36.608 49.3568-79.872 59.136-125.0304l0.0512-0.1536c4.6592-21.2992 7.0144-43.3664 7.0144-65.6896 0-20.1216-1.9456-40.0896-5.8368-59.4432l-0.0512-0.1536c-8.8576-45.4144-27.5456-87.5008-55.552-125.184a312.93952 312.93952 0 0 0-60.6208-61.0816l-8.3456-6.3488v-56.4224c0-24.0128 19.6608-43.5712 43.8272-43.5712h511.5392c24.1664 0 43.8272 19.5584 43.8272 43.5712v88.8832c0 7.936-2.2528 15.4112-6.0928 21.8624a43.1104 43.1104 0 0 1 6.656 22.9888v88.8832c0 8.448-2.4576 16.2816-6.656 22.9888a42.65984 42.65984 0 0 1 6.0928 21.8624v88.8832c0 8.2432-2.3552 15.872-6.3488 22.4768a42.83392 42.83392 0 0 1 6.3488 22.3744V426.24c0 18.8928-12.2368 34.9184-29.184 40.9088 0.1024 1.28 0.2048 2.6112 0.2048 3.9424V559.9744c0 0.4096-0.0512 0.8192-0.0512 1.28h20.992c24.1152 0 43.7248 19.5584 43.7248 43.5712V693.7088c0 23.9616-19.6096 43.4688-43.7248 43.4688z m-696.6784 1.4336V827.4432c0 0.7168 0.6144 1.3312 1.3312 1.3312h511.5392c0.768 0 1.3312-0.6144 1.3312-1.3312v-88.8832c0-0.768-0.6144-1.3312-1.3312-1.3312H166.656c-0.7168 0-1.3312 0.6144-1.3312 1.3824zM826.2144 427.52c0.768 0 1.4336-0.5632 1.4336-1.28v-88.9856c0-0.6656-0.6656-1.28-1.4336-1.28H431.6672A350.30528 350.30528 0 0 1 392.192 427.52h434.0224z m1.4336-135.1168v-88.8832c0-0.7168-0.6144-1.1776-1.2288-1.28H441.088c1.7408 14.0288 2.56 28.2112 2.56 42.4448 0 16.4864-1.1264 32.9216-3.3792 49.0496h385.9456c0.768 0.0512 1.4336-0.6144 1.4336-1.3312z m0.5632-222.6176c0-0.7168-0.7168-1.3824-1.4336-1.3824H396.1344a344.704 344.704 0 0 1 37.1712 91.6992h393.5232c0.7168 0 1.4336-0.6656 1.4336-1.4336v-88.8832z m-0.5632-133.7344c0-0.7168-0.6656-1.3824-1.4336-1.3824H314.6752c-0.7168 0-1.4336 0.6656-1.4336 1.3824v35.7376c19.712 15.9744 37.8368 34.2016 53.9648 54.3744h459.0592c0.6144 0 1.3312-0.512 1.3312-1.28v-88.832z m-28.9792 606.0544v-53.248c0-10.5984-8.5504-19.1488-19.1488-19.1488H370.0736c-5.1712 0-10.0352 2.304-13.4144 6.1952a351.4624 351.4624 0 0 1-66.304 59.0336c-3.6864 2.5088-5.888 6.656-5.888 11.1104v0.256c0 8.2432 6.7072 14.9504 14.9504 14.9504h480.1536c10.496 0 19.0976-8.5504 19.0976-19.1488z m64.6144 62.7712c0-0.768-0.5632-1.4336-1.28-1.4336H350.464a1.4336 1.4336 0 0 0-1.4336 1.4336V693.7088c0 0.768 0.5632 1.28 1.4336 1.28h511.5392c0.7168 0 1.28-0.5632 1.28-1.28v-88.832z"  horiz-adv-x="1024" />

    
    <glyph glyph-name="jiaoyixitongjinbi" unicode="&#58955;" d="M700.7744 346.41920000000005c-10.7008 19.2512-24.4224 35.8912-40.8064 49.4592-31.9488 26.4704-72.3968 41.8304-111.5136 56.7296-4.864 1.8432-9.728 3.6864-14.4896 5.5296l-1.1776 0.4608c-36.1984 13.9264-77.2096 29.7472-98.9696 64.3584-15.36 24.3712-16.0768 55.808-1.8432 82.0736 20.3776 37.632 57.7024 41.984 83.968 41.984 46.8992 0 82.2784-31.1808 105.3184-92.7232l91.1872 38.8608c-25.9584 83.3024-80.3328 130.7136-161.5872 140.8512l-8.96 1.1264V810.1888H482.6112V735.232l-8.7552-1.28c-55.808-8.1408-97.0752-30.5664-122.6752-66.7136-26.0096-36.6592-39.2192-78.592-39.2192-124.5696 0-35.0208 7.3216-65.9456 21.76-92.0064 14.3872-26.0608 33.3824-46.592 56.4736-61.0304 23.9104-14.9504 57.8048-30.3616 100.7104-45.7728 50.2272-18.4832 81.9712-33.536 97.1776-46.0288 16.5376-13.6192 24.9344-33.4848 24.9344-59.1872 0-24.4736-8.0384-45.568-23.9104-62.8224-16.128-17.5104-40.96-26.4192-73.7792-26.4192-66.1504 0-106.9568 35.4816-121.3952 105.4208l-102.8096-27.8528c25.3952-104.704 85.0432-160.6656 182.3232-171.0592l9.1648-0.9728v-97.2288h59.1872v97.7408l9.1136 1.024c54.528 5.9904 103.424 29.0816 134.2464 63.3856 43.7248 48.7424 43.776 117.6576 36.1472 166.912-3.1744 20.8896-10.0864 40.9088-20.5312 59.648z"  horiz-adv-x="1024" />

    
    <glyph glyph-name="ganggan" unicode="&#58953;" d="M833.8432 734.9248c26.88 7.0144 63.6416 16.5888 76.032 39.0144 5.2736 9.5744 5.8368 20.736 1.6384 34.048-7.5776 24.0128-31.7952 37.9904-56.4224 32.5632L144.128 649.984c-25.3952-7.5264-39.9872-34.4064-32.4608-59.904 3.9936-13.5168 10.9568-22.6816 21.248-28.0064 26.4192-13.6192 68.9152 3.7888 102.2976 12.5952l234.3936 62.6688v-578.8672c-0.4096-7.4752-10.752-7.6288-16.9472-7.7312l-1.4336-0.0512c-3.8912-0.256-7.8336-0.3072-11.776-0.3584-4.4544-0.0512-9.0112-0.1024-13.4656-0.512-23.9104-2.048-45.1584-7.7824-63.1808-16.9472-24.1152-12.288-42.0864-30.6688-50.5344-51.712-4.1472-10.2912-6.1952-21.504-6.2464-33.28v-21.5552h412.0064v21.5552c0 32.768-18.2784 64.9216-47.7184 83.8656-18.176 11.6736-39.5264 16.7424-60.7744 19.1488-17.6128 1.9968-35.3792 2.4064-53.0944 3.1744-0.9728 0.0512-1.9456 0.1024-2.7648 0.5632-1.4848 0.8704-1.9456 2.7648-1.9456 4.5056 0.9216 54.784 0.256 109.6192 0.3072 164.4032l0.1536 140.544c0.0512 38.0416 0.0512 76.032 0.0512 114.0736V565.1456c0 19.7632-0.0512 39.5264-0.1024 59.2896-0.0512 10.3424-0.0512 20.6848-0.2048 31.0272 0 0.256-0.256 4.608-0.1024 4.608 0.1024 0 282.0096 74.8544 282.0096 74.8544z"  horiz-adv-x="1024" />

    
    <glyph glyph-name="quzhongxinhua-huan" unicode="&#58952;" d="M625.8176-84.8384c-28.0064-6.7584-56.576-10.3936-85.248-12.3392-28.672-1.3824-57.4976 0.3072-85.9648 3.328-57.0368 6.6048-112.64 24.4224-163.2256 51.4048-101.4272 53.5552-182.2208 144.4864-223.3344 251.2896-20.6336 53.2992-32.1536 110.2848-32.1024 167.4752-1.1776 57.1904 8.8576 114.3808 28.1088 167.936l0.0512 0.1024c1.3824 3.9424-0.7168 8.2432-4.6592 9.6256-3.9424 1.3824-8.2432-0.7168-9.5744-4.6592-19.2512-55.5008-28.928-114.5344-27.0336-173.1584 0.512-58.7264 13.0048-117.0944 34.7136-171.4176 43.3152-108.9024 126.7712-200.6016 230.4-253.8496 51.6608-26.8288 108.2368-44.288 165.9904-50.3296 28.8256-2.7648 57.9584-4.1472 86.8864-2.4064 28.928 2.304 57.7024 6.2976 85.8624 13.3632 112.7424 27.7504 213.9136 97.9968 279.9104 193.1264-67.0208-94.464-168.6528-163.1744-280.7808-189.4912z m375.3472 477.6448c-0.3584 55.296-12.3904 110.1312-31.488 161.6384a497.5616 497.5616 0 0 1-82.5344 142.0288c-35.3792 42.1376-78.0288 77.824-125.0816 105.8304a496.14848 496.14848 0 0 1-152.32 59.0848l-40.5504 5.9904c-13.5168 2.1504-27.2384 1.6384-40.8576 2.6112-27.2384 1.7408-54.6304-0.4608-81.6128-4.1472-108.2368-14.6432-210.0224-68.4032-284.5184-147.7632C237.6192 796.5696 339.6608 848.8448 447.2832 862.1056 474.0608 865.4848 501.248 867.328 528.2304 865.28c13.4656-1.1264 27.0848-0.768 40.3968-3.072l40.0384-6.3488a490.43968 490.43968 0 0 0 149.5552-60.0064c45.9776-28.1088 87.5008-63.6928 121.7024-105.3696a488.7552 488.7552 0 0 0 79.2064-139.9808c18.0736-50.5344 29.184-104.0896 28.8768-157.952 1.3312-53.76-7.5264-107.5712-24.4736-158.4128l-0.0512-0.1024c-1.28-3.9936 0.9216-8.2432 4.864-9.5232s8.192 0.9216 9.472 4.864c16.896 52.736 25.344 108.2368 23.3472 163.4304z"  horiz-adv-x="1024" />

    
    <glyph glyph-name="quzhongxinhua" unicode="&#58951;" d="M656.3328 369.5616l-0.256 0.0512c-2.048 0.6144-4.096 0.8704-6.1952 0.8704-11.5712 0-20.992-9.2672-20.992-20.6848 0-10.5472 8.3456-19.6096 18.9952-20.5824 122.88-26.0096 202.0352-83.7632 202.0352-147.2512 0-88.8832-152.7296-161.1776-340.48-161.1776S168.96 93.08159999999998 168.96 181.96479999999997c0 84.9408 145.7664 157.1328 324.9664 160.9728l3.9424 0.1024v-140.8512c0-11.4176 9.4208-20.6848 20.992-20.6848s20.992 9.2672 20.992 20.6848V466.6368l3.1232 0.5632c77.2096 14.4896 133.2736 81.408 133.2736 159.1808 0 23.3472-4.9152 45.8752-14.6432 66.9696-3.072 8.704-11.0592 14.336-19.968 14.336-11.5712 0-20.992-9.2672-20.992-20.6848 0-2.7136 0.4608-5.1712 1.4848-7.5776l1.3312-3.2768h-0.0512c7.2192-15.7184 10.8544-32.4608 10.8544-49.7152 0-66.6112-54.8352-120.7808-122.2144-120.7808S389.8368 559.7696000000001 389.8368 626.3296c0 66.6624 54.8352 120.8832 122.2144 120.8832 18.3808 0 35.9424-3.8912 52.1728-11.5712l2.56-0.9216c2.1504-0.7168 4.4544-1.0752 6.6048-1.0752 11.5712 0 20.992 9.2672 20.992 20.6848 0 8.8064-5.6832 16.6912-14.1824 19.6096A166.42048 166.42048 0 0 1 512 788.48c-90.5728 0-164.2496-72.704-164.2496-162.0992 0-81.7152 64.4096-152.4736 146.5856-161.1264l3.4304-0.3584v-80.5376l-3.7376-0.1024c-204.3904-4.9664-364.544-93.7984-364.544-202.2912 0-111.6672 171.5712-202.5472 382.4128-202.5472s382.4128 90.88 382.4128 202.5472c0.1536 82.7904-93.2864 156.3648-237.9776 187.5968z"  horiz-adv-x="1024" />

    
    <glyph glyph-name="heyuejiaoyi" unicode="&#58950;" d="M93.1328 579.2256h837.7856c33.2288 0 54.7328 21.4528 54.7328 54.6816 0 33.2288-21.504 54.7328-54.7328 54.7328H93.1328C59.904 688.64 38.4 667.136 38.4 633.9072c0-33.2288 21.504-54.6816 54.7328-54.6816zM807.5776 432.896c-10.5984 10.5984-24.2176 16.4352-38.2464 16.4352-14.08 0-27.648-5.8368-38.2464-16.4352-21.8112-21.8112-21.8112-54.6816 0-76.4928l74.5472-74.5472H93.1328c-33.2288 0-54.7328-21.4528-54.7328-54.6816s21.504-54.6816 54.7328-54.6816h712.4992l-74.5984-74.5472c-10.5984-10.5984-16.4352-24.2176-16.4352-38.2464 0-14.08 5.8368-27.648 16.4352-38.2464 11.8272-11.8272 22.5792-16.4352 38.2976-16.4352s26.4704 4.608 38.2976 16.4352l155.5968 155.4944c27.6992 27.6992 27.6992 72.7552 0 100.4032l-155.648 155.5456z"  horiz-adv-x="1024" />

    
    <glyph glyph-name="xianhuojiaoyi" unicode="&#58949;" d="M896.7168 299.264H147.2512c-24.1664 0-45.2096-14.7968-53.5552-37.6832-8.6528-23.3984-1.536-49.664 17.7152-65.28l174.4896-142.2848a37.18656 37.18656 0 0 1 23.808-8.448c11.3152 0 21.76 4.864 28.8768 13.2608a35.584 35.584 0 0 1 8.2944 26.5216c-0.9216 9.6768-5.632 18.432-13.2608 24.6784l-142.7968 116.3264h705.9456c20.5312 0 37.2224 16.384 37.2224 36.4544-0.0512 20.1216-16.7936 36.4544-37.2736 36.4544zM127.232 456.3968h749.3632c24.1664 0 45.1584 14.7968 53.4528 37.6832 8.6528 23.4496 1.536 49.7152-17.7152 65.3312l-174.4896 142.2848c-15.8208 12.9024-39.3728 10.7008-52.48-4.864a36.05504 36.05504 0 0 1-8.3456-26.5216c0.9216-9.728 5.632-18.4832 13.2608-24.6272l142.7968-116.3776H127.232c-20.5312 0-37.2224-16.3328-37.2224-36.4032 0.0512-20.1728 16.7424-36.5056 37.2224-36.5056z"  horiz-adv-x="1024" />

    
    <glyph glyph-name="twitter" unicode="&#60609;" d="M962.267429 662.820571q-38.253714-56.027429-92.598857-95.451429 0.585143-7.972571 0.585143-23.990857 0-74.313143-21.723429-148.260571t-65.974857-141.970286-105.398857-120.32-147.456-83.456-184.539429-31.158857q-154.843429 0-283.428571 82.870857 19.968-2.267429 44.544-2.267429 128.585143 0 229.156571 78.848-59.977143 1.170286-107.446857 36.864t-65.170286 91.136q18.870857-2.852571 34.889143-2.852571 24.576 0 48.566857 6.290286-64 13.165714-105.984 63.707429t-41.984 117.394286l0 2.267429q38.838857-21.723429 83.456-23.405714-37.741714 25.161143-59.977143 65.682286t-22.308571 87.990857q0 50.322286 25.161143 93.110857 69.12-85.138286 168.301714-136.265143t212.260571-56.832q-4.534857 21.723429-4.534857 42.276571 0 76.580571 53.979429 130.56t130.56 53.979429q80.018286 0 134.875429-58.294857 62.317714 11.995429 117.174857 44.544-21.138286-65.682286-81.115429-101.741714 53.174857 5.705143 106.276571 28.598857z"  horiz-adv-x="1024" />

    
    <glyph glyph-name="youtube" unicode="&#59153;" d="M1002.628571 630.742857a128.342857 128.342857 0 0 1-90.514285 90.628572C832.228571 742.857143 512 742.857143 512 742.857143s-320.228571 0-400.114286-21.371429A128.137143 128.137143 0 0 1 21.371429 630.857143C0 550.857143 0 384 0 384s0-166.857143 21.371429-246.742857c11.771429-44.114286 46.514286-78.857143 90.514285-90.628572C191.771429 25.142857 512 25.142857 512 25.142857s320.228571 0 400.114286 21.485714c44.114286 11.771429 78.742857 46.514286 90.514285 90.628572C1024 217.142857 1024 384 1024 384s0 166.857143-21.371429 246.742857zM410.285714 230.857143V537.142857l265.142857-152-265.142857-154.285714z"  horiz-adv-x="1024" />

    
    <glyph glyph-name="facebook" unicode="&#58945;" d="M725.333333 746.666667a21.333333 21.333333 0 0 1-21.333333 21.333333H597.333333a203.52 203.52 0 0 1-213.333333-192v-115.2H277.333333a21.333333 21.333333 0 0 1-21.333333-21.333333v-110.933334a21.333333 21.333333 0 0 1 21.333333-21.333333H384v-285.866667a21.333333 21.333333 0 0 1 21.333333-21.333333h128a21.333333 21.333333 0 0 1 21.333334 21.333333v285.866667h111.786666a21.333333 21.333333 0 0 1 20.906667 15.786667l30.72 110.933333a21.333333 21.333333 0 0 1-20.48 26.88H554.666667V576a42.666667 42.666667 0 0 0 42.666666 38.4h106.666667a21.333333 21.333333 0 0 1 21.333333 21.333333z"  horiz-adv-x="1024" />

    
    <glyph glyph-name="xingzhuang4" unicode="&#58960;" d="M713.350584 663.138961a31.947339 31.947339 0 0 1 0-45.207609l200.555676-200.508486L31.933183 417.422866a31.994529 31.994529 0 0 1-31.852961-29.351913 32.372046 32.372046 0 0 1 33.03269999-34.589955l882.44497302 0-202.01855301-201.971363a31.947339 31.947339 0 1 1 45.160419-45.160419l255.531526 255.484336 0.330327 0.283137a31.947339 31.947339 0 0 1 9.437914 22.603804 31.192306 31.192306 0 0 1-7.73908899 20.763411 30.861979 30.861979 0 0 1-3.63359701 3.822356l-253.879891 253.832701a31.85296 31.85296 0 0 1-45.396367 0z"  horiz-adv-x="1024" />

    
    <glyph glyph-name="down-arrow" unicode="&#60245;" d="M493.9264 193.89440000000002c0.8704-0.4608 1.6384-1.1776 2.5088-1.536 15.9232-7.6288 35.584-5.12 48.3328 8.3968l291.6864 308.4288c15.9232 16.7936 15.1552 43.3152-1.6384 59.2384-16.7936 15.9232-43.3152 15.1552-59.2384-1.6384l-261.7856-276.736-265.6256 275.6608c-16.0256 16.6912-42.5472 17.152-59.2384 1.0752a42.12224 42.12224 0 0 1-12.9024-30.1056c0-10.496 3.9424-20.9408 11.776-29.0304l294.5536-305.5616c0.5632-0.5632 1.4336-0.768 1.9456-1.4336 0.4608-0.4608 0.768-0.8704 1.1776-1.4336 2.56-2.5088 5.632-3.6864 8.448-5.3248z"  horiz-adv-x="1024" />

    
    <glyph glyph-name="right" unicode="&#59164;" d="M318.35897466 35.44615399999998V732.553846c0 19.692308 25.6 33.476923 43.323077 17.723077l417.476923-340.676923c15.753846-11.815385 15.753846-37.415385 0-49.230769L361.68205166 15.753845999999953c-17.723077-13.784615-43.323077-1.969231-43.323077 19.692308z"  horiz-adv-x="1024" />

    
    <glyph glyph-name="left" unicode="&#59139;" d="M705.64102534 732.553846v-697.107692c0-19.692308-25.6-33.476923-43.323077-17.723077L244.84102534 358.4c-15.753846 11.815385-15.753846 37.415385 0 49.230769L662.31794834 752.2461539999999c17.723077 13.784615 43.323077 1.969231 43.323077-19.692308z"  horiz-adv-x="1024" />

    


  </font>
</defs>
</svg>
